Grateful Dead - October 26, 1989
Miami Arena - Miami, FL

Recording Info:
SBD -> Cassette Master (TDK MA-XG90)

Transfer Info:
Cassette Master (Tascam 122mkII) -> Apogee MiniMe (24bit/48k) ->
Samplitude Professional v8.01 -> FLAC/16
(3 Discs Audio / 2 Discs FLAC)

All Transfers and Mastering By Charlie Miller
charliemiller87@earthlink.net
January 24, 2007

Notes:
-- 2nd Set is seamless
-- Thanks to Paul Scotton and Joani Walker for the tapes
-- Tape flips in Dark Star and Not Fade Away patched with DSBD

Set 1:
d1t01 - Foolish Heart
d1t02 - Little Red Rooster
d1t03 - Stagger Lee
d1t04 - Me And My Uncle ->
d1t05 - Big River
d1t06 - Brown Eyed Women
d1t07 - Victim Or The Crime ->
d1t08 - Don't Ease Me In

Set 2:
d2t01 - Tuning
d2t02 - Estimated Prophet ->
d2t03 - Blow Away
d2t04 - Dark Star ->
d2t05 - Drums ->
d3t01 - Space ->
d3t02 - The Wheel ->
d3t03 - All Along The Watchtower ->
d3t04 - Stella Blue ->
d3t05 - Not Fade Away

Encore:
d3t06 - And We Bid You Good Night


SHNTOOL OUTPUT:
    length     expanded size   cdr  WAVE problems filename
     9:47.48      103659740    ---   --   -----   gd89-10-26d1t01.wav
    11:12.65      118693724    ---   --   -----   gd89-10-26d1t02.wav
     7:58.54       84446252    ---   --   -----   gd89-10-26d1t03.wav
     2:51.18       30206780    ---   --   -----   gd89-10-26d1t04.wav
     7:58.37       84406268    ---   --   -----   gd89-10-26d1t05.wav
     6:23.57       67695308    ---   --   -----   gd89-10-26d1t06.wav
     7:53.70       83601884    ---   --   -----   gd89-10-26d1t07.wav
     3:32.03       37403900    ---   --   -----   gd89-10-26d1t08.wav
     3:10.27       33579548    ---   --   -----   gd89-10-26d2t01.wav
    13:15.51      140357996    ---   --   -----   gd89-10-26d2t02.wav
    10:31.68      111468380    ---   --   -----   gd89-10-26d2t03.wav
    26:53.53      284657900    ---   --   -----   gd89-10-26d2t04.wav
     9:49.10      103923164    ---   --   -----   gd89-10-26d2t05.wav
     7:27.37       78937868    ---   --   -----   gd89-10-26d3t01.wav
     4:10.35       44182364    ---   --   -----   gd89-10-26d3t02.wav
     5:27.65       57835724    ---   --   -----   gd89-10-26d3t03.wav
     8:19.51       88143596    ---   --   -----   gd89-10-26d3t04.wav
    12:19.21      130409036    ---   --   -----   gd89-10-26d3t05.wav
     3:17.71       34917836    ---   --   -----   gd89-10-26d3t06.wav
   162:22.16     1718527268 B                     (totals for 19 files)